<?xml version="1.0" encoding="utf-8"?>
<!-- Generator: Adobe Illustrator 26.0.3, SVG Export Plug-In . SVG Version: 6.00 Build 0)  -->
<svg version="1.0" id="katman_1" xmlns="http://www.w3.org/2000/svg" xmlns:xlink="http://www.w3.org/1999/xlink" x="0px" y="0px"
	 viewBox="0 0 600 450" style="enable-background:new 0 0 600 450;" xml:space="preserve">
<style type="text/css">
	.st0{fill:#C9C8C8;}
</style>
<polygon class="st0" points="476.2,193 420.5,257.7 447.6,257.7 503.4,193 "/>
<polygon class="st0" points="514.2,193 458.5,257.7 485.7,257.7 540.8,193.7 540.8,193 "/>
<path d="M77.4,213.7c-1.1,0-1.9,0.9-1.9,2c0,0,0,0,0,0v12c0,1.1,0.8,2,1.9,2c0,0,0,0,0,0h24.2c7.3,0,13-3.5,13-8c0-4.4-5.7-8-13-8
	L77.4,213.7z M61.2,234.5c-1,0-1.8-0.8-1.8-1.8c0,0,0,0,0,0v-22.2c0-1,0.8-1.8,1.8-1.8h47.2c5.9-0.1,11.7,1.3,16.8,4
	c4.2,2.4,6.7,5.6,6.7,8.9c0,3.3-2.4,6.5-6.7,8.9c-5.2,2.7-11,4.1-16.8,4L61.2,234.5z"/>
<path d="M249,213.7c-1.1,0-1.9,0.9-1.9,2c0,0,0,0,0,0v12c0,1.1,0.8,2,1.9,2c0,0,0,0,0,0h24.2c7.3,0,13-3.5,13-7.9
	c0-4.4-5.7-7.9-13-7.9L249,213.7z M232.8,234.5c-1,0-1.8-0.8-1.8-1.8c0,0,0,0,0,0v-22.2c0-1,0.8-1.8,1.8-1.8l47.2,0.1
	c5.9-0.1,11.6,1.2,16.8,3.9c4.2,2.4,6.7,5.6,6.7,8.9c0,3.3-2.4,6.5-6.7,8.9c-5.2,2.7-11,4.1-16.8,3.9L232.8,234.5z"/>
<path d="M181.4,213c-1.7,0-3.5,0-5.2,0c-9.9,0.4-17.1,3.9-17.1,8.7s7.2,8.2,17,8.6l0,0c1.5,0,3,0,5.1,0c2.1,0,3.5,0,5.1,0l0,0
	c9.9-0.3,17-3.9,17-8.6s-7.2-8.3-17-8.6c-1.7,0-3.5,0-5.2,0 M181.2,235.4c-3.9,0-6.6,0-9.3-0.2h-0.2c-7.2-0.1-14.4-1.5-21-4.2
	c-5.4-2.5-8.4-5.7-8.4-9.2c0-7,13-12.9,29.5-13.4c3.1-0.1,6.3-0.2,9.4-0.2s6.3,0,9.4,0.2c16.6,0.5,29.5,6.3,29.5,13.4
	c0,3.4-3,6.7-8.4,9.2c-6.7,2.7-13.8,4.1-21,4.2h0.1c-2.7,0-5.4,0.2-9.2,0.2"/>
<path d="M340.9,234.6h-0.8c-17.6,0-26.9-4.6-26.9-12.9c0-6.8,11.8-12.5,27-12.9h3.3h43.5c0.5-0.1,0.9,0.3,1,0.7c0,0.1,0,0.1,0,0.2
	v3.1c0,0.5-0.3,0.9-0.8,0.9c-0.1,0-0.1,0-0.2,0H349c-1.5,0-2.9,0-4.5,0c-3.5,0.1-14.9,1.2-14.9,7.9c0,4.7,6.1,7.6,14.9,7.9l0,0
	c1.3,0,2.6,0,4.4,0h20.6c1.1,0,2-0.3,2-1.4v-2.7c0-1.1-0.9-1.5-2-1.5h-20.6c-0.5,0-0.9-0.4-0.9-0.9c0,0,0,0,0,0v-2.6
	c0-0.5,0.5-1,1-0.9c0,0,0,0,0,0h37.1c1,0,1.8,0.8,1.8,1.8v11.6c0,1-0.8,1.8-1.8,1.8L340.9,234.6"/>
<path d="M401.8,234.5c-1,0-1.7-0.8-1.7-1.7l0,0v-22.3c0-1,0.8-1.7,1.7-1.7l0,0h63.9c0.6,0,1,0.5,1,1v2.9c0,0.6-0.5,1-1,1
	c0,0,0,0,0,0H419c-1.1-0.2-2.2,0.6-2.4,1.7c0,0.1,0,0.3,0,0.4v1.7c0,1.4,1.1,2,2.5,2h44.4c0.6,0,1,0.4,1,1v2.4c0,0.5-0.4,1-0.9,1
	c0,0-0.1,0-0.1,0h-44.5c-1.4,0-2.5,0.7-2.5,2.1v1.8c0,1.3,1.1,1.9,2.5,1.9h47.7c0.5,0,1,0.4,1,0.9c0,0,0,0.1,0,0.1v2.9
	c0,0.6-0.4,1-1,1c0,0,0,0,0,0H401.8z"/>
</svg>
