<svg xmlns="http://www.w3.org/2000/svg" version="1.1" xmlns:xlink="http://www.w3.org/1999/xlink" xmlns:svgjs="http://svgjs.dev/svgjs" width="2000" height="1247" viewBox="0 0 2000 1247"><g transform="matrix(1,0,0,1,-1.2121212121212466,0.504858299595071)"><svg viewBox="0 0 396 247" data-background-color="#ffffff" preserveAspectRatio="xMidYMid meet" height="1247" width="2000" xmlns="http://www.w3.org/2000/svg" xmlns:xlink="http://www.w3.org/1999/xlink"><g id="tight-bounds" transform="matrix(1,0,0,1,0.2400000000000091,-0.09999999999999432)"><svg viewBox="0 0 395.52 247.2" height="247.2" width="395.52"><g><svg></svg></g><g><svg viewBox="0 0 395.52 247.2" height="247.2" width="395.52"><mask id="cade48fe-ec9a-400f-bf99-909f591e0de8"><rect width="640" height="400" fill="white"></rect><rect width="348.05760000000004" height="64.30589468748028" fill="black" y="91.44705265625986" x="23.731199999999973" id="transform-me"></rect></mask><g transform="matrix(1,0,0,1,39.55199999999999,101.7592204176334)"><svg viewBox="0 0 316.416 43.68155916473318" height="43.68155916473318" width="316.416"><g><svg viewBox="0 0 316.416 43.68155916473318" height="43.68155916473318" width="316.416"><g><svg viewBox="0 0 316.416 43.68155916473318" height="43.68155916473318" width="316.416"><g id="textblocktransform"><svg viewBox="0 0 316.416 43.68155916473318" height="43.68155916473318" width="316.416" id="textblock"><g><svg viewBox="0 0 316.416 43.68155916473318" height="43.68155916473318" width="316.416"><g transform="matrix(1,0,0,1,0,0)"><svg width="316.416" viewBox="3.5 -35.25 258.58 35.7" height="43.68155916473318" data-palette-color="#4169ff"><g class="wordmark-text-0" data-fill-palette-color="primary" id="text-0"><path d="M3.5 0L3.5-35.25 17.2-35.25Q22.95-35.25 27.1-33.15 31.25-31.05 33.45-27.1 35.65-23.15 35.65-17.65L35.65-17.65Q35.65-12.15 33.48-8.18 31.3-4.2 27.15-2.1 23 0 17.2 0L17.2 0 3.5 0ZM11.3-6.3L16.65-6.3Q27.9-6.3 27.9-17.65L27.9-17.65Q27.9-28.95 16.65-28.95L16.65-28.95 11.3-28.95 11.3-6.3ZM66.55-10.45L72.25 0 63.75 0 57.65-11.25Q56.9-12.55 55.85-13.13 54.8-13.7 53.2-13.7L53.2-13.7 49.35-13.7 49.35 0 41.65 0 41.65-35.25 57.85-35.25Q64.05-35.25 67.22-32.52 70.4-29.8 70.4-24.65L70.4-24.65Q70.4-20.65 68.17-17.95 65.95-15.25 61.9-14.4L61.9-14.4Q64.65-13.7 66.55-10.45L66.55-10.45ZM56.7-19.6Q60.05-19.6 61.55-20.78 63.05-21.95 63.05-24.45L63.05-24.45Q63.05-27 61.55-28.15 60.05-29.3 56.7-29.3L56.7-29.3 49.25-29.3 49.25-19.6 56.7-19.6ZM84.5 0L76.7 0 76.7-35.25 84.5-35.25 84.5 0ZM106.29-9.7L117.29-35.25 125.19-35.25 109.34 0 103.09 0 87.19-35.25 95.29-35.25 106.29-9.7ZM152.19 0L127.89 0 127.89-35.25 152.19-35.25 152.19-29.2 135.49-29.2 135.49-20.95 151.19-20.95 151.19-14.9 135.49-14.9 135.49-6.05 152.19-6.05 152.19 0ZM181.44-21L181.44-35.25 189.09-35.25 189.09 0 181.44 0 181.44-14.8 165.19-14.8 165.19 0 157.54 0 157.54-35.25 165.19-35.25 165.19-21 181.44-21ZM211.04 0.45Q203.64 0.45 199.76-3.38 195.89-7.2 195.89-14.55L195.89-14.55 195.89-35.25 203.54-35.25 203.54-14.2Q203.54-10 205.46-7.8 207.39-5.6 211.04-5.6L211.04-5.6Q214.69-5.6 216.64-7.83 218.59-10.05 218.59-14.2L218.59-14.2 218.59-35.25 226.24-35.25 226.24-14.55Q226.24-7.25 222.34-3.4 218.44 0.45 211.04 0.45L211.04 0.45ZM255.68-18.25Q258.73-17.35 260.41-15.13 262.08-12.9 262.08-9.65L262.08-9.65Q262.08-5.2 258.81-2.6 255.53 0 249.78 0L249.78 0 233.03 0 233.03-35.25 249.28-35.25Q254.78-35.25 258.01-32.8 261.23-30.35 261.23-26.1L261.23-26.1Q261.23-23.35 259.76-21.28 258.28-19.2 255.68-18.25L255.68-18.25ZM240.63-29.3L240.63-20.9 247.98-20.9Q250.98-20.9 252.41-21.93 253.83-22.95 253.83-25.05L253.83-25.05Q253.83-27.25 252.41-28.28 250.98-29.3 247.98-29.3L247.98-29.3 240.63-29.3ZM248.88-5.95Q251.98-5.95 253.38-7 254.78-8.05 254.78-10.4L254.78-10.4Q254.78-12.75 253.38-13.85 251.98-14.95 248.88-14.95L248.88-14.95 240.63-14.95 240.63-5.95 248.88-5.95Z" fill="#4169ff" data-fill-palette-color="primary"></path></g></svg></g></svg></g></svg></g></svg></g></svg></g></svg></g><g mask="url(#cade48fe-ec9a-400f-bf99-909f591e0de8)"><g transform="matrix(3.0487274174095766, 0, 0, 3.0487274174095766, 45.32310283852999, 1)"><svg xmlns="http://www.w3.org/2000/svg" xmlns:xlink="http://www.w3.org/1999/xlink" version="1.1" x="0" y="0" viewBox="0 9.786 100.00034525290006 80.42699999999999" enable-background="new 0 0 100 100" xml:space="preserve" width="100.00034525290006" height="80.42699999999999" class="icon-none" data-fill-palette-color="accent" id="none"><path d="M49.942 52.994c13.552-0.488 27.103-0.977 40.653-1.465-2.527-4.177-3.159-7.831-7.989-8.461-7.229-0.94-14.458-1.883-21.688-2.826-14.023-1.827-28.05-3.654-42.075-5.48C20.101 36.792 39.724 53.361 49.942 52.994z" fill="#4169ff" data-fill-palette-color="accent"></path><path d="M0 9.786c4.391 7.257 26.615 23.072 32.953 23.886 17.33 2.231 34.657 4.46 51.986 6.688-3.393-5.607-4.18-9.35-10.312-10.959-8.904-2.341-17.812-4.683-26.717-7.023C31.94 18.182 15.97 13.984 0 9.786z" fill="#4169ff" data-fill-palette-color="accent"></path><path d="M63.108 66.207c10.413-2.219 20.826-4.439 31.241-6.66-2.028-3.346-2.034-5.359-5.827-5.189-6.158 0.273-12.314 0.549-18.471 0.822-11.343 0.506-22.686 1.014-34.028 1.518C37.298 58.064 54.94 67.947 63.108 66.207z" fill="#4169ff" data-fill-palette-color="accent"></path><path d="M87.682 90.213c5.725-3.719 7.262-7.721 10.519-13.807 3.651-6.824 1.257-7.844-2.821-14.596-0.417-0.688-5.842 0.232-6.453 0.904-0.745 0.818-0.248 5.455-0.294 6.496C88.315 76.211 87.998 83.213 87.682 90.213z" fill="#4169ff" data-fill-palette-color="accent"></path><path d="M86.35 63.447c-3.795 0.809-8.604 0.191-9.572 4.229-1.373 5.736-2.746 11.475-4.12 17.211C81.904 82.678 86.028 71.582 86.35 63.447z" fill="#4169ff" data-fill-palette-color="accent"></path><path d="M74.666 66.121c-9.148 1.953-8.956 4.611-12.879 13.18C68.007 78.711 73.811 71.941 74.666 66.121z" fill="#4169ff" data-fill-palette-color="accent"></path></svg></g></g></svg></g><defs></defs></svg><rect width="395.52" height="247.2" fill="none" stroke="none" visibility="hidden"></rect></g></svg></g></svg>